<svg xmlns="http://www.w3.org/2000/svg" xmlns:xlink="http://www.w3.org/1999/xlink" width="200" zoomAndPan="magnify" viewBox="0 0 150 74.999997" height="100" preserveAspectRatio="xMidYMid meet" version="1.0"><defs><g/></defs><g fill="#964070" fill-opacity="0.1882"><g transform="translate(42.60826, 38.413612)"><g><path d="M 11.890625 -26.375 C 13.722656 -26.375 15.171875 -25.769531 16.234375 -24.5625 C 17.296875 -23.363281 17.828125 -21.773438 17.828125 -19.796875 C 17.828125 -19.160156 17.804688 -18.679688 17.765625 -18.359375 C 17.484375 -16.023438 16.644531 -14.15625 15.25 -12.75 C 13.863281 -11.34375 12.179688 -10.640625 10.203125 -10.640625 L 7.484375 -10.640625 C 7.390625 -10.640625 7.316406 -10.578125 7.265625 -10.453125 L 6.0625 -0.453125 C 6.03125 -0.328125 5.960938 -0.21875 5.859375 -0.125 C 5.765625 -0.0390625 5.65625 0 5.53125 0 L 1.28125 0 C 1.15625 0 1.050781 -0.0390625 0.96875 -0.125 C 0.894531 -0.21875 0.875 -0.328125 0.90625 -0.453125 L 4.03125 -25.921875 C 4.050781 -26.046875 4.101562 -26.148438 4.1875 -26.234375 C 4.28125 -26.328125 4.390625 -26.375 4.515625 -26.375 Z M 9.59375 -14.78125 C 10.46875 -14.78125 11.191406 -15.15625 11.765625 -15.90625 C 12.347656 -16.664062 12.640625 -17.695312 12.640625 -19 C 12.640625 -19.875 12.441406 -20.554688 12.046875 -21.046875 C 11.660156 -21.535156 11.128906 -21.78125 10.453125 -21.78125 L 8.84375 -21.78125 C 8.71875 -21.78125 8.65625 -21.71875 8.65625 -21.59375 L 7.828125 -14.96875 C 7.828125 -14.84375 7.875 -14.78125 7.96875 -14.78125 Z M 9.59375 -14.78125 "/></g></g></g><g fill="#964070" fill-opacity="0.1882"><g transform="translate(59.574871, 38.413612)"><g><path d="M 7.859375 0.296875 C 5.828125 0.296875 4.226562 -0.257812 3.0625 -1.375 C 1.894531 -2.488281 1.3125 -4.007812 1.3125 -5.9375 C 1.3125 -6.195312 1.335938 -6.601562 1.390625 -7.15625 L 2.859375 -19.1875 C 3.128906 -21.445312 4.015625 -23.253906 5.515625 -24.609375 C 7.023438 -25.960938 8.898438 -26.640625 11.140625 -26.640625 C 13.171875 -26.640625 14.773438 -26.082031 15.953125 -24.96875 C 17.128906 -23.851562 17.71875 -22.328125 17.71875 -20.390625 C 17.71875 -20.140625 17.691406 -19.738281 17.640625 -19.1875 L 16.171875 -7.15625 C 15.898438 -4.894531 15.003906 -3.085938 13.484375 -1.734375 C 11.972656 -0.378906 10.097656 0.296875 7.859375 0.296875 Z M 8.390625 -4.25 C 9.085938 -4.25 9.671875 -4.492188 10.140625 -4.984375 C 10.609375 -5.472656 10.890625 -6.117188 10.984375 -6.921875 L 12.53125 -19.421875 C 12.550781 -19.515625 12.5625 -19.660156 12.5625 -19.859375 C 12.5625 -20.535156 12.382812 -21.070312 12.03125 -21.46875 C 11.6875 -21.875 11.210938 -22.078125 10.609375 -22.078125 C 9.929688 -22.078125 9.359375 -21.832031 8.890625 -21.34375 C 8.429688 -20.863281 8.148438 -20.222656 8.046875 -19.421875 L 6.515625 -6.921875 C 6.484375 -6.816406 6.46875 -6.664062 6.46875 -6.46875 C 6.46875 -5.789062 6.644531 -5.25 7 -4.84375 C 7.351562 -4.445312 7.816406 -4.25 8.390625 -4.25 Z M 8.390625 -4.25 "/></g></g></g><g fill="#964070" fill-opacity="0.1882"><g transform="translate(76.804824, 38.413612)"><g><path d="M 1.3125 0 C 1.1875 0 1.085938 -0.0390625 1.015625 -0.125 C 0.941406 -0.21875 0.914062 -0.328125 0.9375 -0.453125 L 4.0625 -25.890625 C 4.082031 -26.015625 4.132812 -26.117188 4.21875 -26.203125 C 4.3125 -26.296875 4.421875 -26.34375 4.546875 -26.34375 L 8.796875 -26.34375 C 9.078125 -26.34375 9.21875 -26.191406 9.21875 -25.890625 L 8.046875 -16.40625 C 8.023438 -16.300781 8.046875 -16.242188 8.109375 -16.234375 C 8.171875 -16.222656 8.210938 -16.265625 8.234375 -16.359375 L 14.140625 -26 C 14.265625 -26.226562 14.457031 -26.34375 14.71875 -26.34375 L 19.21875 -26.34375 C 19.394531 -26.34375 19.507812 -26.296875 19.5625 -26.203125 C 19.613281 -26.117188 19.585938 -25.988281 19.484375 -25.8125 L 12.75 -14.96875 C 12.726562 -14.945312 12.707031 -14.914062 12.6875 -14.875 C 12.675781 -14.84375 12.671875 -14.800781 12.671875 -14.75 L 16.671875 -0.53125 L 16.703125 -0.375 C 16.703125 -0.125 16.566406 0 16.296875 0 L 11.703125 0 C 11.453125 0 11.300781 -0.113281 11.25 -0.34375 L 8.65625 -10.203125 C 8.65625 -10.273438 8.625 -10.300781 8.5625 -10.28125 C 8.5 -10.269531 8.441406 -10.242188 8.390625 -10.203125 L 7.109375 -8.234375 C 7.085938 -8.210938 7.0625 -8.179688 7.03125 -8.140625 C 7.007812 -8.109375 7 -8.066406 7 -8.015625 L 6.09375 -0.453125 C 6.070312 -0.328125 6.007812 -0.21875 5.90625 -0.125 C 5.800781 -0.0390625 5.6875 0 5.5625 0 Z M 1.3125 0 "/></g></g></g><g fill="#964070" fill-opacity="0.1882"><g transform="translate(94.711937, 38.413612)"><g><path d="M 17 -22.234375 C 16.976562 -22.109375 16.921875 -22 16.828125 -21.90625 C 16.742188 -21.820312 16.640625 -21.78125 16.515625 -21.78125 L 8.875 -21.78125 C 8.75 -21.78125 8.6875 -21.71875 8.6875 -21.59375 L 7.9375 -15.65625 C 7.9375 -15.53125 7.988281 -15.46875 8.09375 -15.46875 L 12.484375 -15.46875 C 12.609375 -15.46875 12.707031 -15.421875 12.78125 -15.328125 C 12.863281 -15.242188 12.894531 -15.140625 12.875 -15.015625 L 12.421875 -11.359375 C 12.390625 -11.234375 12.328125 -11.125 12.234375 -11.03125 C 12.148438 -10.945312 12.046875 -10.90625 11.921875 -10.90625 L 7.5625 -10.90625 C 7.414062 -10.90625 7.34375 -10.84375 7.34375 -10.71875 L 6.625 -4.734375 C 6.570312 -4.609375 6.617188 -4.546875 6.765625 -4.546875 L 14.375 -4.546875 C 14.5 -4.546875 14.601562 -4.503906 14.6875 -4.421875 C 14.78125 -4.335938 14.8125 -4.226562 14.78125 -4.09375 L 14.328125 -0.453125 C 14.304688 -0.328125 14.25 -0.21875 14.15625 -0.125 C 14.070312 -0.0390625 13.96875 0 13.84375 0 L 1.3125 0 C 1.1875 0 1.085938 -0.0390625 1.015625 -0.125 C 0.941406 -0.21875 0.914062 -0.328125 0.9375 -0.453125 L 4.0625 -25.890625 C 4.082031 -26.015625 4.132812 -26.117188 4.21875 -26.203125 C 4.3125 -26.296875 4.421875 -26.34375 4.546875 -26.34375 L 17.078125 -26.34375 C 17.203125 -26.34375 17.300781 -26.296875 17.375 -26.203125 C 17.457031 -26.117188 17.484375 -26.015625 17.453125 -25.890625 Z M 17 -22.234375 "/></g></g></g><g fill="#0091ea" fill-opacity="1"><g transform="translate(40.945288, 36.750639)"><g><path d="M 11.890625 -26.375 C 13.722656 -26.375 15.171875 -25.769531 16.234375 -24.5625 C 17.296875 -23.363281 17.828125 -21.773438 17.828125 -19.796875 C 17.828125 -19.160156 17.804688 -18.679688 17.765625 -18.359375 C 17.484375 -16.023438 16.644531 -14.15625 15.25 -12.75 C 13.863281 -11.34375 12.179688 -10.640625 10.203125 -10.640625 L 7.484375 -10.640625 C 7.390625 -10.640625 7.316406 -10.578125 7.265625 -10.453125 L 6.0625 -0.453125 C 6.03125 -0.328125 5.960938 -0.21875 5.859375 -0.125 C 5.765625 -0.0390625 5.65625 0 5.53125 0 L 1.28125 0 C 1.15625 0 1.050781 -0.0390625 0.96875 -0.125 C 0.894531 -0.21875 0.875 -0.328125 0.90625 -0.453125 L 4.03125 -25.921875 C 4.050781 -26.046875 4.101562 -26.148438 4.1875 -26.234375 C 4.28125 -26.328125 4.390625 -26.375 4.515625 -26.375 Z M 9.59375 -14.78125 C 10.46875 -14.78125 11.191406 -15.15625 11.765625 -15.90625 C 12.347656 -16.664062 12.640625 -17.695312 12.640625 -19 C 12.640625 -19.875 12.441406 -20.554688 12.046875 -21.046875 C 11.660156 -21.535156 11.128906 -21.78125 10.453125 -21.78125 L 8.84375 -21.78125 C 8.71875 -21.78125 8.65625 -21.71875 8.65625 -21.59375 L 7.828125 -14.96875 C 7.828125 -14.84375 7.875 -14.78125 7.96875 -14.78125 Z M 9.59375 -14.78125 "/></g></g></g><g fill="#0091ea" fill-opacity="1"><g transform="translate(57.911899, 36.750639)"><g><path d="M 7.859375 0.296875 C 5.828125 0.296875 4.226562 -0.257812 3.0625 -1.375 C 1.894531 -2.488281 1.3125 -4.007812 1.3125 -5.9375 C 1.3125 -6.195312 1.335938 -6.601562 1.390625 -7.15625 L 2.859375 -19.1875 C 3.128906 -21.445312 4.015625 -23.253906 5.515625 -24.609375 C 7.023438 -25.960938 8.898438 -26.640625 11.140625 -26.640625 C 13.171875 -26.640625 14.773438 -26.082031 15.953125 -24.96875 C 17.128906 -23.851562 17.71875 -22.328125 17.71875 -20.390625 C 17.71875 -20.140625 17.691406 -19.738281 17.640625 -19.1875 L 16.171875 -7.15625 C 15.898438 -4.894531 15.003906 -3.085938 13.484375 -1.734375 C 11.972656 -0.378906 10.097656 0.296875 7.859375 0.296875 Z M 8.390625 -4.25 C 9.085938 -4.25 9.671875 -4.492188 10.140625 -4.984375 C 10.609375 -5.472656 10.890625 -6.117188 10.984375 -6.921875 L 12.53125 -19.421875 C 12.550781 -19.515625 12.5625 -19.660156 12.5625 -19.859375 C 12.5625 -20.535156 12.382812 -21.070312 12.03125 -21.46875 C 11.6875 -21.875 11.210938 -22.078125 10.609375 -22.078125 C 9.929688 -22.078125 9.359375 -21.832031 8.890625 -21.34375 C 8.429688 -20.863281 8.148438 -20.222656 8.046875 -19.421875 L 6.515625 -6.921875 C 6.484375 -6.816406 6.46875 -6.664062 6.46875 -6.46875 C 6.46875 -5.789062 6.644531 -5.25 7 -4.84375 C 7.351562 -4.445312 7.816406 -4.25 8.390625 -4.25 Z M 8.390625 -4.25 "/></g></g></g><g fill="#0091ea" fill-opacity="1"><g transform="translate(75.141851, 36.750639)"><g><path d="M 1.3125 0 C 1.1875 0 1.085938 -0.0390625 1.015625 -0.125 C 0.941406 -0.21875 0.914062 -0.328125 0.9375 -0.453125 L 4.0625 -25.890625 C 4.082031 -26.015625 4.132812 -26.117188 4.21875 -26.203125 C 4.3125 -26.296875 4.421875 -26.34375 4.546875 -26.34375 L 8.796875 -26.34375 C 9.078125 -26.34375 9.21875 -26.191406 9.21875 -25.890625 L 8.046875 -16.40625 C 8.023438 -16.300781 8.046875 -16.242188 8.109375 -16.234375 C 8.171875 -16.222656 8.210938 -16.265625 8.234375 -16.359375 L 14.140625 -26 C 14.265625 -26.226562 14.457031 -26.34375 14.71875 -26.34375 L 19.21875 -26.34375 C 19.394531 -26.34375 19.507812 -26.296875 19.5625 -26.203125 C 19.613281 -26.117188 19.585938 -25.988281 19.484375 -25.8125 L 12.75 -14.96875 C 12.726562 -14.945312 12.707031 -14.914062 12.6875 -14.875 C 12.675781 -14.84375 12.671875 -14.800781 12.671875 -14.75 L 16.671875 -0.53125 L 16.703125 -0.375 C 16.703125 -0.125 16.566406 0 16.296875 0 L 11.703125 0 C 11.453125 0 11.300781 -0.113281 11.25 -0.34375 L 8.65625 -10.203125 C 8.65625 -10.273438 8.625 -10.300781 8.5625 -10.28125 C 8.5 -10.269531 8.441406 -10.242188 8.390625 -10.203125 L 7.109375 -8.234375 C 7.085938 -8.210938 7.0625 -8.179688 7.03125 -8.140625 C 7.007812 -8.109375 7 -8.066406 7 -8.015625 L 6.09375 -0.453125 C 6.070312 -0.328125 6.007812 -0.21875 5.90625 -0.125 C 5.800781 -0.0390625 5.6875 0 5.5625 0 Z M 1.3125 0 "/></g></g></g><g fill="#0091ea" fill-opacity="1"><g transform="translate(93.048964, 36.750639)"><g><path d="M 17 -22.234375 C 16.976562 -22.109375 16.921875 -22 16.828125 -21.90625 C 16.742188 -21.820312 16.640625 -21.78125 16.515625 -21.78125 L 8.875 -21.78125 C 8.75 -21.78125 8.6875 -21.71875 8.6875 -21.59375 L 7.9375 -15.65625 C 7.9375 -15.53125 7.988281 -15.46875 8.09375 -15.46875 L 12.484375 -15.46875 C 12.609375 -15.46875 12.707031 -15.421875 12.78125 -15.328125 C 12.863281 -15.242188 12.894531 -15.140625 12.875 -15.015625 L 12.421875 -11.359375 C 12.390625 -11.234375 12.328125 -11.125 12.234375 -11.03125 C 12.148438 -10.945312 12.046875 -10.90625 11.921875 -10.90625 L 7.5625 -10.90625 C 7.414062 -10.90625 7.34375 -10.84375 7.34375 -10.71875 L 6.625 -4.734375 C 6.570312 -4.609375 6.617188 -4.546875 6.765625 -4.546875 L 14.375 -4.546875 C 14.5 -4.546875 14.601562 -4.503906 14.6875 -4.421875 C 14.78125 -4.335938 14.8125 -4.226562 14.78125 -4.09375 L 14.328125 -0.453125 C 14.304688 -0.328125 14.25 -0.21875 14.15625 -0.125 C 14.070312 -0.0390625 13.96875 0 13.84375 0 L 1.3125 0 C 1.1875 0 1.085938 -0.0390625 1.015625 -0.125 C 0.941406 -0.21875 0.914062 -0.328125 0.9375 -0.453125 L 4.0625 -25.890625 C 4.082031 -26.015625 4.132812 -26.117188 4.21875 -26.203125 C 4.3125 -26.296875 4.421875 -26.34375 4.546875 -26.34375 L 17.078125 -26.34375 C 17.203125 -26.34375 17.300781 -26.296875 17.375 -26.203125 C 17.457031 -26.117188 17.484375 -26.015625 17.453125 -25.890625 Z M 17 -22.234375 "/></g></g></g><g fill="#964070" fill-opacity="0.1882"><g transform="translate(17.095027, 68.387855)"><g><path d="M 7.75 0.296875 C 5.769531 0.296875 4.203125 -0.257812 3.046875 -1.375 C 1.890625 -2.488281 1.3125 -4 1.3125 -5.90625 C 1.3125 -6.15625 1.335938 -6.554688 1.390625 -7.109375 L 2.890625 -19.296875 C 3.140625 -21.535156 4.007812 -23.316406 5.5 -24.640625 C 7 -25.972656 8.851562 -26.640625 11.0625 -26.640625 C 13.070312 -26.640625 14.648438 -26.082031 15.796875 -24.96875 C 16.953125 -23.851562 17.53125 -22.34375 17.53125 -20.4375 C 17.53125 -20.175781 17.503906 -19.796875 17.453125 -19.296875 L 17.375 -18.890625 C 17.351562 -18.765625 17.296875 -18.65625 17.203125 -18.5625 C 17.117188 -18.476562 17.015625 -18.4375 16.890625 -18.4375 L 12.609375 -18.25 C 12.328125 -18.25 12.203125 -18.382812 12.234375 -18.65625 L 12.34375 -19.640625 C 12.363281 -19.742188 12.375 -19.894531 12.375 -20.09375 C 12.375 -20.695312 12.203125 -21.175781 11.859375 -21.53125 C 11.523438 -21.894531 11.070312 -22.078125 10.5 -22.078125 C 9.875 -22.078125 9.332031 -21.851562 8.875 -21.40625 C 8.425781 -20.957031 8.148438 -20.367188 8.046875 -19.640625 L 6.46875 -6.65625 C 6.445312 -6.5625 6.4375 -6.425781 6.4375 -6.25 C 6.4375 -5.644531 6.601562 -5.160156 6.9375 -4.796875 C 7.28125 -4.429688 7.726562 -4.25 8.28125 -4.25 C 8.925781 -4.25 9.472656 -4.46875 9.921875 -4.90625 C 10.378906 -5.34375 10.660156 -5.925781 10.765625 -6.65625 L 10.875 -7.671875 C 10.894531 -7.796875 10.945312 -7.898438 11.03125 -7.984375 C 11.125 -8.078125 11.234375 -8.125 11.359375 -8.125 L 15.609375 -7.9375 C 15.734375 -7.9375 15.832031 -7.890625 15.90625 -7.796875 C 15.988281 -7.710938 16.015625 -7.609375 15.984375 -7.484375 L 15.953125 -7.109375 C 15.679688 -4.847656 14.789062 -3.046875 13.28125 -1.703125 C 11.78125 -0.367188 9.9375 0.296875 7.75 0.296875 Z M 7.75 0.296875 "/></g></g></g><g fill="#964070" fill-opacity="0.1882"><g transform="translate(34.024019, 68.387855)"><g><path d="M 17 -22.234375 C 16.976562 -22.109375 16.921875 -22 16.828125 -21.90625 C 16.742188 -21.820312 16.640625 -21.78125 16.515625 -21.78125 L 8.875 -21.78125 C 8.75 -21.78125 8.6875 -21.71875 8.6875 -21.59375 L 7.9375 -15.65625 C 7.9375 -15.53125 7.988281 -15.46875 8.09375 -15.46875 L 12.484375 -15.46875 C 12.609375 -15.46875 12.707031 -15.421875 12.78125 -15.328125 C 12.863281 -15.242188 12.894531 -15.140625 12.875 -15.015625 L 12.421875 -11.359375 C 12.390625 -11.234375 12.328125 -11.125 12.234375 -11.03125 C 12.148438 -10.945312 12.046875 -10.90625 11.921875 -10.90625 L 7.5625 -10.90625 C 7.414062 -10.90625 7.34375 -10.84375 7.34375 -10.71875 L 6.625 -4.734375 C 6.570312 -4.609375 6.617188 -4.546875 6.765625 -4.546875 L 14.375 -4.546875 C 14.5 -4.546875 14.601562 -4.503906 14.6875 -4.421875 C 14.78125 -4.335938 14.8125 -4.226562 14.78125 -4.09375 L 14.328125 -0.453125 C 14.304688 -0.328125 14.25 -0.21875 14.15625 -0.125 C 14.070312 -0.0390625 13.96875 0 13.84375 0 L 1.3125 0 C 1.1875 0 1.085938 -0.0390625 1.015625 -0.125 C 0.941406 -0.21875 0.914062 -0.328125 0.9375 -0.453125 L 4.0625 -25.890625 C 4.082031 -26.015625 4.132812 -26.117188 4.21875 -26.203125 C 4.3125 -26.296875 4.421875 -26.34375 4.546875 -26.34375 L 17.078125 -26.34375 C 17.203125 -26.34375 17.300781 -26.296875 17.375 -26.203125 C 17.457031 -26.117188 17.484375 -26.015625 17.453125 -25.890625 Z M 17 -22.234375 "/></g></g></g><g fill="#964070" fill-opacity="0.1882"><g transform="translate(50.012509, 68.387855)"><g><path d="M 14.484375 -25.890625 C 14.503906 -26.015625 14.554688 -26.117188 14.640625 -26.203125 C 14.734375 -26.296875 14.84375 -26.34375 14.96875 -26.34375 L 19.21875 -26.34375 C 19.351562 -26.34375 19.457031 -26.296875 19.53125 -26.203125 C 19.601562 -26.117188 19.628906 -26.015625 19.609375 -25.890625 L 16.484375 -0.453125 C 16.453125 -0.328125 16.390625 -0.21875 16.296875 -0.125 C 16.210938 -0.0390625 16.109375 0 15.984375 0 L 11.171875 0 C 10.953125 0 10.800781 -0.125 10.71875 -0.375 L 8.015625 -14.9375 C 7.984375 -15.007812 7.9375 -15.039062 7.875 -15.03125 C 7.8125 -15.019531 7.78125 -14.976562 7.78125 -14.90625 L 6.0625 -0.453125 C 6.03125 -0.328125 5.960938 -0.21875 5.859375 -0.125 C 5.765625 -0.0390625 5.65625 0 5.53125 0 L 1.3125 0 C 1.1875 0 1.085938 -0.0390625 1.015625 -0.125 C 0.941406 -0.21875 0.914062 -0.328125 0.9375 -0.453125 L 4.0625 -25.890625 C 4.082031 -26.015625 4.132812 -26.117188 4.21875 -26.203125 C 4.3125 -26.296875 4.421875 -26.34375 4.546875 -26.34375 L 9.328125 -26.34375 C 9.554688 -26.34375 9.695312 -26.21875 9.75 -25.96875 L 12.53125 -11.40625 C 12.550781 -11.320312 12.59375 -11.285156 12.65625 -11.296875 C 12.71875 -11.316406 12.75 -11.363281 12.75 -11.4375 Z M 14.484375 -25.890625 "/></g></g></g><g fill="#964070" fill-opacity="0.1882"><g transform="translate(68.784887, 68.387855)"><g><path d="M 18.28125 -26.34375 C 18.40625 -26.34375 18.503906 -26.296875 18.578125 -26.203125 C 18.660156 -26.117188 18.6875 -26.015625 18.65625 -25.890625 L 18.203125 -22.234375 C 18.179688 -22.109375 18.125 -22 18.03125 -21.90625 C 17.945312 -21.820312 17.84375 -21.78125 17.71875 -21.78125 L 13.125 -21.78125 C 13.082031 -21.78125 13.039062 -21.757812 13 -21.71875 C 12.957031 -21.6875 12.9375 -21.644531 12.9375 -21.59375 L 10.34375 -0.453125 C 10.320312 -0.328125 10.265625 -0.21875 10.171875 -0.125 C 10.085938 -0.0390625 9.984375 0 9.859375 0 L 5.5625 0 C 5.4375 0 5.335938 -0.0390625 5.265625 -0.125 C 5.191406 -0.21875 5.164062 -0.328125 5.1875 -0.453125 L 7.78125 -21.59375 C 7.832031 -21.71875 7.785156 -21.78125 7.640625 -21.78125 L 3.265625 -21.78125 C 2.992188 -21.78125 2.859375 -21.929688 2.859375 -22.234375 L 3.3125 -25.890625 C 3.332031 -26.015625 3.382812 -26.117188 3.46875 -26.203125 C 3.5625 -26.296875 3.671875 -26.34375 3.796875 -26.34375 Z M 18.28125 -26.34375 "/></g></g></g><g fill="#964070" fill-opacity="0.1882"><g transform="translate(85.864366, 68.387855)"><g><path d="M 10.953125 0 C 10.703125 0 10.550781 -0.125 10.5 -0.375 L 8.953125 -10.765625 C 8.898438 -10.859375 8.835938 -10.90625 8.765625 -10.90625 L 7.5625 -10.90625 C 7.414062 -10.90625 7.34375 -10.84375 7.34375 -10.71875 L 6.09375 -0.453125 C 6.070312 -0.328125 6.007812 -0.21875 5.90625 -0.125 C 5.800781 -0.0390625 5.6875 0 5.5625 0 L 1.3125 0 C 1.1875 0 1.085938 -0.0390625 1.015625 -0.125 C 0.941406 -0.21875 0.914062 -0.328125 0.9375 -0.453125 L 4.0625 -25.890625 C 4.082031 -26.015625 4.132812 -26.117188 4.21875 -26.203125 C 4.3125 -26.296875 4.421875 -26.34375 4.546875 -26.34375 L 11.921875 -26.34375 C 13.734375 -26.34375 15.175781 -25.742188 16.25 -24.546875 C 17.332031 -23.359375 17.875 -21.773438 17.875 -19.796875 C 17.875 -19.191406 17.847656 -18.726562 17.796875 -18.40625 C 17.617188 -16.945312 17.1875 -15.644531 16.5 -14.5 C 15.8125 -13.363281 14.941406 -12.484375 13.890625 -11.859375 C 13.835938 -11.828125 13.796875 -11.789062 13.765625 -11.75 C 13.742188 -11.71875 13.742188 -11.675781 13.765625 -11.625 L 15.765625 -0.53125 L 15.765625 -0.453125 C 15.765625 -0.328125 15.71875 -0.21875 15.625 -0.125 C 15.539062 -0.0390625 15.4375 0 15.3125 0 Z M 8.875 -21.78125 C 8.75 -21.78125 8.6875 -21.71875 8.6875 -21.59375 L 7.90625 -15.15625 C 7.851562 -15.03125 7.898438 -14.96875 8.046875 -14.96875 L 9.671875 -14.96875 C 10.523438 -14.96875 11.238281 -15.34375 11.8125 -16.09375 C 12.382812 -16.851562 12.671875 -17.847656 12.671875 -19.078125 C 12.671875 -19.898438 12.476562 -20.554688 12.09375 -21.046875 C 11.707031 -21.535156 11.1875 -21.78125 10.53125 -21.78125 Z M 8.875 -21.78125 "/></g></g></g><g fill="#964070" fill-opacity="0.1882"><g transform="translate(103.0567, 68.387855)"><g><path d="M 11.59375 0 C 11.3125 0 11.171875 -0.132812 11.171875 -0.40625 L 11.03125 -4.03125 C 11.050781 -4.070312 11.035156 -4.113281 10.984375 -4.15625 C 10.929688 -4.195312 10.882812 -4.21875 10.84375 -4.21875 L 6.203125 -4.21875 C 6.054688 -4.21875 5.984375 -4.15625 5.984375 -4.03125 L 4.921875 -0.40625 C 4.847656 -0.132812 4.675781 0 4.40625 0 L 0.15625 0 C -0.144531 0 -0.25 -0.160156 -0.15625 -0.484375 L 8.3125 -25.921875 C 8.382812 -26.203125 8.5625 -26.34375 8.84375 -26.34375 L 13.765625 -26.34375 C 14.015625 -26.34375 14.164062 -26.203125 14.21875 -25.921875 L 16.40625 -0.484375 L 16.40625 -0.375 C 16.40625 -0.125 16.265625 0 15.984375 0 Z M 7.265625 -8.5 C 7.210938 -8.375 7.25 -8.3125 7.375 -8.3125 L 10.640625 -8.3125 C 10.773438 -8.3125 10.84375 -8.375 10.84375 -8.5 L 10.390625 -18.78125 C 10.359375 -18.851562 10.316406 -18.890625 10.265625 -18.890625 C 10.222656 -18.890625 10.1875 -18.851562 10.15625 -18.78125 Z M 7.265625 -8.5 "/></g></g></g><g fill="#964070" fill-opacity="0.1882"><g transform="translate(120.662852, 68.387855)"><g><path d="M 1.3125 0 C 1.1875 0 1.085938 -0.0390625 1.015625 -0.125 C 0.941406 -0.21875 0.914062 -0.328125 0.9375 -0.453125 L 4.0625 -25.890625 C 4.082031 -26.015625 4.132812 -26.117188 4.21875 -26.203125 C 4.3125 -26.296875 4.421875 -26.34375 4.546875 -26.34375 L 8.796875 -26.34375 C 9.078125 -26.34375 9.21875 -26.191406 9.21875 -25.890625 L 6.625 -4.734375 C 6.570312 -4.609375 6.617188 -4.546875 6.765625 -4.546875 L 14.40625 -4.546875 C 14.6875 -4.546875 14.828125 -4.394531 14.828125 -4.09375 L 14.375 -0.453125 C 14.34375 -0.328125 14.285156 -0.21875 14.203125 -0.125 C 14.117188 -0.0390625 14.015625 0 13.890625 0 Z M 1.3125 0 "/></g></g></g><g fill="#ff595e" fill-opacity="1"><g transform="translate(15.432055, 66.724883)"><g><path d="M 7.75 0.296875 C 5.769531 0.296875 4.203125 -0.257812 3.046875 -1.375 C 1.890625 -2.488281 1.3125 -4 1.3125 -5.90625 C 1.3125 -6.15625 1.335938 -6.554688 1.390625 -7.109375 L 2.890625 -19.296875 C 3.140625 -21.535156 4.007812 -23.316406 5.5 -24.640625 C 7 -25.972656 8.851562 -26.640625 11.0625 -26.640625 C 13.070312 -26.640625 14.648438 -26.082031 15.796875 -24.96875 C 16.953125 -23.851562 17.53125 -22.34375 17.53125 -20.4375 C 17.53125 -20.175781 17.503906 -19.796875 17.453125 -19.296875 L 17.375 -18.890625 C 17.351562 -18.765625 17.296875 -18.65625 17.203125 -18.5625 C 17.117188 -18.476562 17.015625 -18.4375 16.890625 -18.4375 L 12.609375 -18.25 C 12.328125 -18.25 12.203125 -18.382812 12.234375 -18.65625 L 12.34375 -19.640625 C 12.363281 -19.742188 12.375 -19.894531 12.375 -20.09375 C 12.375 -20.695312 12.203125 -21.175781 11.859375 -21.53125 C 11.523438 -21.894531 11.070312 -22.078125 10.5 -22.078125 C 9.875 -22.078125 9.332031 -21.851562 8.875 -21.40625 C 8.425781 -20.957031 8.148438 -20.367188 8.046875 -19.640625 L 6.46875 -6.65625 C 6.445312 -6.5625 6.4375 -6.425781 6.4375 -6.25 C 6.4375 -5.644531 6.601562 -5.160156 6.9375 -4.796875 C 7.28125 -4.429688 7.726562 -4.25 8.28125 -4.25 C 8.925781 -4.25 9.472656 -4.46875 9.921875 -4.90625 C 10.378906 -5.34375 10.660156 -5.925781 10.765625 -6.65625 L 10.875 -7.671875 C 10.894531 -7.796875 10.945312 -7.898438 11.03125 -7.984375 C 11.125 -8.078125 11.234375 -8.125 11.359375 -8.125 L 15.609375 -7.9375 C 15.734375 -7.9375 15.832031 -7.890625 15.90625 -7.796875 C 15.988281 -7.710938 16.015625 -7.609375 15.984375 -7.484375 L 15.953125 -7.109375 C 15.679688 -4.847656 14.789062 -3.046875 13.28125 -1.703125 C 11.78125 -0.367188 9.9375 0.296875 7.75 0.296875 Z M 7.75 0.296875 "/></g></g></g><g fill="#ff595e" fill-opacity="1"><g transform="translate(32.361047, 66.724883)"><g><path d="M 17 -22.234375 C 16.976562 -22.109375 16.921875 -22 16.828125 -21.90625 C 16.742188 -21.820312 16.640625 -21.78125 16.515625 -21.78125 L 8.875 -21.78125 C 8.75 -21.78125 8.6875 -21.71875 8.6875 -21.59375 L 7.9375 -15.65625 C 7.9375 -15.53125 7.988281 -15.46875 8.09375 -15.46875 L 12.484375 -15.46875 C 12.609375 -15.46875 12.707031 -15.421875 12.78125 -15.328125 C 12.863281 -15.242188 12.894531 -15.140625 12.875 -15.015625 L 12.421875 -11.359375 C 12.390625 -11.234375 12.328125 -11.125 12.234375 -11.03125 C 12.148438 -10.945312 12.046875 -10.90625 11.921875 -10.90625 L 7.5625 -10.90625 C 7.414062 -10.90625 7.34375 -10.84375 7.34375 -10.71875 L 6.625 -4.734375 C 6.570312 -4.609375 6.617188 -4.546875 6.765625 -4.546875 L 14.375 -4.546875 C 14.5 -4.546875 14.601562 -4.503906 14.6875 -4.421875 C 14.78125 -4.335938 14.8125 -4.226562 14.78125 -4.09375 L 14.328125 -0.453125 C 14.304688 -0.328125 14.25 -0.21875 14.15625 -0.125 C 14.070312 -0.0390625 13.96875 0 13.84375 0 L 1.3125 0 C 1.1875 0 1.085938 -0.0390625 1.015625 -0.125 C 0.941406 -0.21875 0.914062 -0.328125 0.9375 -0.453125 L 4.0625 -25.890625 C 4.082031 -26.015625 4.132812 -26.117188 4.21875 -26.203125 C 4.3125 -26.296875 4.421875 -26.34375 4.546875 -26.34375 L 17.078125 -26.34375 C 17.203125 -26.34375 17.300781 -26.296875 17.375 -26.203125 C 17.457031 -26.117188 17.484375 -26.015625 17.453125 -25.890625 Z M 17 -22.234375 "/></g></g></g><g fill="#ff595e" fill-opacity="1"><g transform="translate(48.349536, 66.724883)"><g><path d="M 14.484375 -25.890625 C 14.503906 -26.015625 14.554688 -26.117188 14.640625 -26.203125 C 14.734375 -26.296875 14.84375 -26.34375 14.96875 -26.34375 L 19.21875 -26.34375 C 19.351562 -26.34375 19.457031 -26.296875 19.53125 -26.203125 C 19.601562 -26.117188 19.628906 -26.015625 19.609375 -25.890625 L 16.484375 -0.453125 C 16.453125 -0.328125 16.390625 -0.21875 16.296875 -0.125 C 16.210938 -0.0390625 16.109375 0 15.984375 0 L 11.171875 0 C 10.953125 0 10.800781 -0.125 10.71875 -0.375 L 8.015625 -14.9375 C 7.984375 -15.007812 7.9375 -15.039062 7.875 -15.03125 C 7.8125 -15.019531 7.78125 -14.976562 7.78125 -14.90625 L 6.0625 -0.453125 C 6.03125 -0.328125 5.960938 -0.21875 5.859375 -0.125 C 5.765625 -0.0390625 5.65625 0 5.53125 0 L 1.3125 0 C 1.1875 0 1.085938 -0.0390625 1.015625 -0.125 C 0.941406 -0.21875 0.914062 -0.328125 0.9375 -0.453125 L 4.0625 -25.890625 C 4.082031 -26.015625 4.132812 -26.117188 4.21875 -26.203125 C 4.3125 -26.296875 4.421875 -26.34375 4.546875 -26.34375 L 9.328125 -26.34375 C 9.554688 -26.34375 9.695312 -26.21875 9.75 -25.96875 L 12.53125 -11.40625 C 12.550781 -11.320312 12.59375 -11.285156 12.65625 -11.296875 C 12.71875 -11.316406 12.75 -11.363281 12.75 -11.4375 Z M 14.484375 -25.890625 "/></g></g></g><g fill="#ff595e" fill-opacity="1"><g transform="translate(67.121915, 66.724883)"><g><path d="M 18.28125 -26.34375 C 18.40625 -26.34375 18.503906 -26.296875 18.578125 -26.203125 C 18.660156 -26.117188 18.6875 -26.015625 18.65625 -25.890625 L 18.203125 -22.234375 C 18.179688 -22.109375 18.125 -22 18.03125 -21.90625 C 17.945312 -21.820312 17.84375 -21.78125 17.71875 -21.78125 L 13.125 -21.78125 C 13.082031 -21.78125 13.039062 -21.757812 13 -21.71875 C 12.957031 -21.6875 12.9375 -21.644531 12.9375 -21.59375 L 10.34375 -0.453125 C 10.320312 -0.328125 10.265625 -0.21875 10.171875 -0.125 C 10.085938 -0.0390625 9.984375 0 9.859375 0 L 5.5625 0 C 5.4375 0 5.335938 -0.0390625 5.265625 -0.125 C 5.191406 -0.21875 5.164062 -0.328125 5.1875 -0.453125 L 7.78125 -21.59375 C 7.832031 -21.71875 7.785156 -21.78125 7.640625 -21.78125 L 3.265625 -21.78125 C 2.992188 -21.78125 2.859375 -21.929688 2.859375 -22.234375 L 3.3125 -25.890625 C 3.332031 -26.015625 3.382812 -26.117188 3.46875 -26.203125 C 3.5625 -26.296875 3.671875 -26.34375 3.796875 -26.34375 Z M 18.28125 -26.34375 "/></g></g></g><g fill="#ff595e" fill-opacity="1"><g transform="translate(84.201393, 66.724883)"><g><path d="M 10.953125 0 C 10.703125 0 10.550781 -0.125 10.5 -0.375 L 8.953125 -10.765625 C 8.898438 -10.859375 8.835938 -10.90625 8.765625 -10.90625 L 7.5625 -10.90625 C 7.414062 -10.90625 7.34375 -10.84375 7.34375 -10.71875 L 6.09375 -0.453125 C 6.070312 -0.328125 6.007812 -0.21875 5.90625 -0.125 C 5.800781 -0.0390625 5.6875 0 5.5625 0 L 1.3125 0 C 1.1875 0 1.085938 -0.0390625 1.015625 -0.125 C 0.941406 -0.21875 0.914062 -0.328125 0.9375 -0.453125 L 4.0625 -25.890625 C 4.082031 -26.015625 4.132812 -26.117188 4.21875 -26.203125 C 4.3125 -26.296875 4.421875 -26.34375 4.546875 -26.34375 L 11.921875 -26.34375 C 13.734375 -26.34375 15.175781 -25.742188 16.25 -24.546875 C 17.332031 -23.359375 17.875 -21.773438 17.875 -19.796875 C 17.875 -19.191406 17.847656 -18.726562 17.796875 -18.40625 C 17.617188 -16.945312 17.1875 -15.644531 16.5 -14.5 C 15.8125 -13.363281 14.941406 -12.484375 13.890625 -11.859375 C 13.835938 -11.828125 13.796875 -11.789062 13.765625 -11.75 C 13.742188 -11.71875 13.742188 -11.675781 13.765625 -11.625 L 15.765625 -0.53125 L 15.765625 -0.453125 C 15.765625 -0.328125 15.71875 -0.21875 15.625 -0.125 C 15.539062 -0.0390625 15.4375 0 15.3125 0 Z M 8.875 -21.78125 C 8.75 -21.78125 8.6875 -21.71875 8.6875 -21.59375 L 7.90625 -15.15625 C 7.851562 -15.03125 7.898438 -14.96875 8.046875 -14.96875 L 9.671875 -14.96875 C 10.523438 -14.96875 11.238281 -15.34375 11.8125 -16.09375 C 12.382812 -16.851562 12.671875 -17.847656 12.671875 -19.078125 C 12.671875 -19.898438 12.476562 -20.554688 12.09375 -21.046875 C 11.707031 -21.535156 11.1875 -21.78125 10.53125 -21.78125 Z M 8.875 -21.78125 "/></g></g></g><g fill="#ff595e" fill-opacity="1"><g transform="translate(101.393728, 66.724883)"><g><path d="M 11.59375 0 C 11.3125 0 11.171875 -0.132812 11.171875 -0.40625 L 11.03125 -4.03125 C 11.050781 -4.070312 11.035156 -4.113281 10.984375 -4.15625 C 10.929688 -4.195312 10.882812 -4.21875 10.84375 -4.21875 L 6.203125 -4.21875 C 6.054688 -4.21875 5.984375 -4.15625 5.984375 -4.03125 L 4.921875 -0.40625 C 4.847656 -0.132812 4.675781 0 4.40625 0 L 0.15625 0 C -0.144531 0 -0.25 -0.160156 -0.15625 -0.484375 L 8.3125 -25.921875 C 8.382812 -26.203125 8.5625 -26.34375 8.84375 -26.34375 L 13.765625 -26.34375 C 14.015625 -26.34375 14.164062 -26.203125 14.21875 -25.921875 L 16.40625 -0.484375 L 16.40625 -0.375 C 16.40625 -0.125 16.265625 0 15.984375 0 Z M 7.265625 -8.5 C 7.210938 -8.375 7.25 -8.3125 7.375 -8.3125 L 10.640625 -8.3125 C 10.773438 -8.3125 10.84375 -8.375 10.84375 -8.5 L 10.390625 -18.78125 C 10.359375 -18.851562 10.316406 -18.890625 10.265625 -18.890625 C 10.222656 -18.890625 10.1875 -18.851562 10.15625 -18.78125 Z M 7.265625 -8.5 "/></g></g></g><g fill="#ff595e" fill-opacity="1"><g transform="translate(118.99988, 66.724883)"><g><path d="M 1.3125 0 C 1.1875 0 1.085938 -0.0390625 1.015625 -0.125 C 0.941406 -0.21875 0.914062 -0.328125 0.9375 -0.453125 L 4.0625 -25.890625 C 4.082031 -26.015625 4.132812 -26.117188 4.21875 -26.203125 C 4.3125 -26.296875 4.421875 -26.34375 4.546875 -26.34375 L 8.796875 -26.34375 C 9.078125 -26.34375 9.21875 -26.191406 9.21875 -25.890625 L 6.625 -4.734375 C 6.570312 -4.609375 6.617188 -4.546875 6.765625 -4.546875 L 14.40625 -4.546875 C 14.6875 -4.546875 14.828125 -4.394531 14.828125 -4.09375 L 14.375 -0.453125 C 14.34375 -0.328125 14.285156 -0.21875 14.203125 -0.125 C 14.117188 -0.0390625 14.015625 0 13.890625 0 Z M 1.3125 0 "/></g></g></g></svg>