<svg xmlns="http://www.w3.org/2000/svg" xmlns:xlink="http://www.w3.org/1999/xlink" width="137" zoomAndPan="magnify" viewBox="0 0 102.75 374.999991" height="500" preserveAspectRatio="xMidYMid meet" version="1.0"><defs><clipPath id="747df01424"><path d="M 12 0.859375 L 102.5 0.859375 L 102.5 210 L 12 210 Z M 12 0.859375 " clip-rule="nonzero"/></clipPath><clipPath id="23afa3b7a2"><path d="M 0.046875 160 L 90 160 L 90 374 L 0.046875 374 Z M 0.046875 160 " clip-rule="nonzero"/></clipPath></defs><g clip-path="url(#747df01424)"><path fill="#45bffc" d="M 34.464844 200.175781 L 34.429688 200.175781 L 22.796875 163.34375 C 22.671875 162.976562 22.542969 162.667969 22.40625 162.421875 C 22.273438 162.175781 22.03125 161.988281 21.6875 161.871094 C 21.339844 161.746094 20.851562 161.65625 20.207031 161.609375 C 19.566406 161.5625 18.679688 161.539062 17.550781 161.539062 C 16.21875 161.539062 15.183594 161.566406 14.445312 161.628906 C 13.710938 161.691406 13.1875 161.851562 12.875 162.109375 C 12.570312 162.367188 12.445312 162.753906 12.503906 163.273438 C 12.570312 163.789062 12.746094 164.488281 13.042969 165.375 L 27.261719 207.703125 C 27.363281 208.019531 27.464844 208.289062 27.578125 208.496094 C 27.6875 208.707031 27.847656 208.882812 28.058594 209.035156 C 28.265625 209.179688 28.527344 209.304688 28.835938 209.402344 C 29.140625 209.5 29.539062 209.570312 30.035156 209.625 C 30.527344 209.671875 31.125 209.699219 31.824219 209.714844 C 32.523438 209.726562 33.371094 209.734375 34.355469 209.734375 C 35.585938 209.734375 36.585938 209.714844 37.351562 209.675781 C 38.113281 209.644531 38.710938 209.558594 39.160156 209.421875 C 39.601562 209.285156 39.917969 209.085938 40.117188 208.832031 C 40.3125 208.570312 40.476562 208.234375 40.597656 207.816406 L 102.578125 0.859375 L 34.464844 200.175781 " fill-opacity="1" fill-rule="nonzero"/></g><g clip-path="url(#23afa3b7a2)"><path fill="#fd4760" d="M 88.394531 190.191406 C 87.804688 188.78125 87.027344 187.546875 86.070312 186.5 C 85.105469 185.457031 84.011719 184.554688 82.78125 183.804688 C 81.546875 183.058594 80.292969 182.386719 79.015625 181.796875 C 77.734375 181.203125 76.476562 180.644531 75.242188 180.117188 C 74.011719 179.585938 72.914062 179.027344 71.941406 178.417969 C 70.96875 177.820312 70.191406 177.125 69.613281 176.351562 C 69.03125 175.578125 68.746094 174.660156 68.746094 173.605469 C 68.746094 172.890625 68.875 172.214844 69.132812 171.574219 C 69.394531 170.9375 69.789062 170.390625 70.3125 169.933594 C 70.84375 169.476562 71.503906 169.121094 72.292969 168.859375 C 73.078125 168.605469 74 168.476562 75.0625 168.476562 C 76.414062 168.476562 77.660156 168.640625 78.789062 168.972656 C 79.925781 169.304688 80.925781 169.671875 81.785156 170.078125 C 82.644531 170.484375 83.375 170.863281 83.964844 171.207031 C 84.550781 171.550781 84.984375 171.722656 85.257812 171.722656 C 85.527344 171.722656 85.742188 171.648438 85.902344 171.5 C 86.058594 171.355469 86.183594 171.117188 86.273438 170.800781 C 86.355469 170.480469 86.417969 170.074219 86.457031 169.582031 C 86.492188 169.085938 86.515625 168.488281 86.515625 167.773438 C 86.515625 167.132812 86.496094 166.597656 86.476562 166.167969 C 86.449219 165.738281 86.40625 165.378906 86.347656 165.097656 C 86.285156 164.816406 86.210938 164.589844 86.125 164.414062 C 86.035156 164.246094 85.871094 164.03125 85.625 163.789062 C 85.378906 163.542969 84.875 163.234375 84.113281 162.863281 C 83.351562 162.496094 82.472656 162.164062 81.488281 161.871094 C 80.503906 161.574219 79.441406 161.339844 78.3125 161.164062 C 77.175781 160.996094 76.046875 160.910156 74.914062 160.910156 C 72.722656 160.910156 70.644531 161.191406 68.6875 161.757812 C 66.730469 162.324219 65.035156 163.179688 63.589844 164.324219 C 62.148438 165.464844 61.007812 166.90625 60.15625 168.640625 C 59.308594 170.378906 58.882812 172.386719 58.882812 174.671875 C 58.882812 176.667969 59.179688 178.378906 59.769531 179.804688 C 60.359375 181.226562 61.132812 182.46875 62.078125 183.511719 C 63.023438 184.554688 64.105469 185.457031 65.308594 186.207031 C 66.515625 186.957031 67.757812 187.625 69.039062 188.222656 C 70.320312 188.808594 71.566406 189.367188 72.769531 189.898438 C 73.976562 190.429688 75.054688 190.992188 76.003906 191.59375 C 76.949219 192.199219 77.71875 192.886719 78.3125 193.660156 C 78.902344 194.433594 79.199219 195.363281 79.199219 196.449219 C 79.199219 197.382812 79.027344 198.230469 78.679688 198.996094 C 78.335938 199.753906 77.835938 200.398438 77.1875 200.914062 C 76.53125 201.429688 75.738281 201.832031 74.800781 202.113281 C 73.867188 202.394531 72.804688 202.539062 71.628906 202.539062 C 69.828125 202.539062 68.246094 202.335938 66.878906 201.925781 C 65.507812 201.519531 64.335938 201.074219 63.347656 200.582031 C 63.332031 200.574219 63.316406 200.5625 63.300781 200.558594 C 62.335938 200.070312 61.550781 199.628906 60.929688 199.234375 C 60.925781 199.230469 60.917969 199.226562 60.914062 199.222656 C 57.265625 197.222656 54.3125 198.929688 53.003906 203.453125 L 0.046875 373.796875 L 60.636719 207.839844 C 61.34375 208.238281 62.207031 208.617188 63.242188 208.976562 C 64.324219 209.355469 65.574219 209.683594 66.992188 209.953125 C 68.40625 210.222656 69.9375 210.359375 71.589844 210.359375 C 74.023438 210.359375 76.320312 210.039062 78.460938 209.402344 C 80.605469 208.761719 82.472656 207.804688 84.074219 206.542969 C 85.675781 205.277344 86.941406 203.691406 87.875 201.796875 C 88.816406 199.902344 89.285156 197.703125 89.285156 195.195312 C 89.285156 193.277344 88.984375 191.609375 88.394531 190.191406 " fill-opacity="1" fill-rule="nonzero"/></g></svg>